<?xml version="1.0" encoding="UTF-8" standalone="no"?>
<!-- Created with Inkscape (http://www.inkscape.org/) -->

<svg
   xmlns:dc="http://purl.org/dc/elements/1.1/"
   xmlns:cc="http://creativecommons.org/ns#"
   xmlns:rdf="http://www.w3.org/1999/02/22-rdf-syntax-ns#"
   xmlns:svg="http://www.w3.org/2000/svg"
   xmlns="http://www.w3.org/2000/svg"
   xmlns:sodipodi="http://sodipodi.sourceforge.net/DTD/sodipodi-0.dtd"
   xmlns:inkscape="http://www.inkscape.org/namespaces/inkscape"
   width="97.293755mm"
   height="50.909519mm"
   viewBox="0 0 344.74165 180.38806"
   id="svg4236"
   version="1.1"
   inkscape:version="0.91 r13725">
  <defs
     id="defs4238" />
  <sodipodi:namedview
     id="base"
     pagecolor="#ffffff"
     bordercolor="#666666"
     borderopacity="1.0"
     inkscape:pageopacity="0.0"
     inkscape:pageshadow="2"
     inkscape:zoom="0.35"
     inkscape:cx="-222.62918"
     inkscape:cy="164.47978"
     inkscape:document-units="px"
     inkscape:current-layer="layer1"
     showgrid="false"
     fit-margin-top="0"
     fit-margin-left="0"
     fit-margin-right="0"
     fit-margin-bottom="0"
     inkscape:window-width="1366"
     inkscape:window-height="705"
     inkscape:window-x="0"
     inkscape:window-y="31"
     inkscape:window-maximized="1" />
  <metadata
     id="metadata4241">
    <rdf:RDF>
      <cc:Work
         rdf:about="">
        <dc:format>image/svg+xml</dc:format>
        <dc:type
           rdf:resource="http://purl.org/dc/dcmitype/StillImage" />
        <dc:title></dc:title>
      </cc:Work>
    </rdf:RDF>
  </metadata>
  <g
     inkscape:label="Layer 1"
     inkscape:groupmode="layer"
     id="layer1"
     transform="translate(-110.48632,-516.45392)">
    <path
       style="fill:none;fill-opacity:1"
       d="m 110.48632,516.45392 344.74164,0 0,180.38806 -344.74164,0 z"
       id="rect17222"
       inkscape:connector-curvature="0" />
    <g
       id="g4251"
       transform="matrix(0.33506036,0,0,0.33506036,852.79217,462.3169)"
       inkscape:export-filename="/home/fc/Downloads/jeitin2.png"
       inkscape:export-xdpi="267"
       inkscape:export-ydpi="267">
      <path
         sodipodi:nodetypes="ccc"
         inkscape:connector-curvature="0"
         id="path17248"
         d="m -1782.9383,357.63753 c 75.3802,-53.32246 152.399,-91.82579 254.7873,-108.62187 95.3312,-20.75695 238.1493,1.07325 263.1847,18.5921"
         style="fill:none;fill-rule:evenodd;stroke:#800080;stroke-width:9.2520647;stroke-linecap:round;stroke-linejoin:round;stroke-miterlimit:4;stroke-dasharray:none;stroke-opacity:1" />
      <path
         id="path10909"
         d="m -2044.5538,473.77367 c -3.7119,1.60924 -8.5533,1.4231 -12.6756,1.42575 -8.1825,0.004 -16.2667,-1.13237 -24.2537,-3.23739 -4.4358,-1.16878 -9.2354,-2.80601 -12.7702,-5.79786 2.5495,-2.78896 6.2317,-4.57774 9.3005,-6.82481 3.4828,-2.55098 6.5439,-5.62469 10.1499,-8.02127 10.0506,7.62259 18.7669,16.58459 30.2491,22.45558 z"
         style="fill:#d45500;stroke:none"
         inkscape:connector-curvature="0" />
      <path
         id="path9525"
         d="m -2141.6981,430.99385 c 2.4902,-2.03245 6.1614,-2.79553 9.0476,-4.29327 4.6679,-2.42224 9.0329,-5.82347 12.8598,-9.41726 16.648,-15.63443 26.3726,-39.7454 25.1081,-62.55117 -0.3349,-6.03954 -2.7826,-11.31243 -3.8472,-17.13892 3.0145,-0.35098 5.9367,-0.45172 8.932,0.15718 16.0937,3.27338 20.8993,21.77797 20.1675,36.06857 -0.2484,4.85252 -4.5256,6.35361 -7.9955,9.01699 -5.004,3.84057 -10.1512,8.98684 -13.2049,14.55457 -2.9622,5.39925 -4.4303,11.73103 -3.7425,17.86857 0.3556,3.17298 2.7959,7.81899 1.7914,10.89195 -1.2016,3.67367 -6.8902,7.14113 -9.9174,9.18813 -9.1811,6.20836 -21.068,9.71478 -31.153,3.45931 -3.3629,-2.08607 -5.4172,-4.94504 -8.0459,-7.80465 z"
         style="fill:#d45500;stroke:none"
         inkscape:connector-curvature="0" />
      <path
         id="path9373"
         d="m -1942.3509,427.25623 c -4.7832,-5.13989 -9.5208,-10.22584 -15.0127,-14.63229 -21.5803,-17.31339 -52.9183,-28.24313 -80.5679,-22.18147 -5.4943,1.20439 -10.9338,3.18048 -15.8119,5.98754 -3.5782,2.05933 -6.7729,4.67617 -9.4583,7.81126 -8.4741,9.89333 -8.5601,23.36794 -4.242,35.11731 6.5271,17.76045 21.1815,31.07664 36.873,40.87786 -2.4652,-0.0901 -4.9806,-1.77229 -7.2038,-2.79979 -5.6904,-2.63003 -10.8241,-5.4662 -16.0793,-8.87711 -14.4241,-9.36267 -27.8657,-21.36142 -36.2131,-36.56104 -6.2827,-11.44018 -8.1347,-24.3793 -1.3208,-36.0172 6.5595,-11.20354 18.8166,-19.26048 30.2981,-24.66358 3.827,-1.80133 7.8451,-3.15675 11.8175,-4.60163 1.5771,-0.57409 4.3098,-0.96849 5.382,-2.37023 1.4891,-1.94749 0.9634,-6.63394 1.0003,-8.98197 0.1327,-8.47133 -1.2394,-16.74351 -1.722,-25.1613 4.0433,1.86873 8.3709,3.49334 12.2193,5.73762 6.1565,3.59015 11.5954,8.43878 16.6226,13.44725 2.7576,2.74755 5.2774,5.8095 7.5352,8.97757 1.1899,1.67026 2.2187,4.06052 3.9591,5.22351 2.3323,1.55891 6.1229,1.96915 8.8008,2.79161 3.7175,1.14185 7.5972,3.04145 11.0083,4.91039 15.1221,8.28324 27.3899,20.49477 35.568,35.65854 3.1607,5.86038 6.7651,13.51753 6.5476,20.30715 z"
         style="fill:#d45500;stroke:none"
         inkscape:connector-curvature="0" />
      <path
         id="path9621"
         d="m -1974.2115,399.87952 c 8.7365,5.49992 16.9707,10.68684 24.4636,17.89415 2.4752,2.38093 5.9957,5.12706 7.4507,8.27986 1.0557,2.28704 1.0084,5.24736 1.1135,7.71002 0.2227,5.21868 0.08,10.19719 -0.514,15.37891 -0.8195,7.15374 -3.277,13.78305 -6.2695,20.25775 -2.6617,5.75897 -5.4786,11.06816 -10.6851,14.98595 -16.4044,12.34472 -41.002,7.6131 -59.054,1.33759 -4.9115,-1.70731 -10.2825,-3.12184 -14.6992,-5.96932 -10.4458,-6.73469 -20.281,-14.41013 -28.128,-24.13053 -4.2995,-5.32638 -7.96,-11.34233 -10.3555,-17.72732 -1.6168,-4.30784 -2.6866,-8.64606 -2.9922,-13.22936 -1.3035,-19.57325 13.8154,-32.40817 31.591,-36.84512 17.5788,-4.3879 36.9437,-0.74519 53.5938,5.62443 4.8889,1.87079 10.0182,3.62164 14.4849,6.43299 z"
         style="fill:#ff9955;stroke:none"
         inkscape:connector-curvature="0" />
      <path
         id="path9735"
         d="m -1959.4615,424.36089 c 3.1684,2.19853 5.9715,4.94329 7.7733,8.39431 7.9175,15.1651 -4.2559,34.95879 -21.763,33.33476 -3.7845,-0.35079 -7.7443,-1.81228 -10.9002,-3.92083 -2.7503,-1.8379 -5.0976,-4.19244 -6.818,-7.02316 -7.1815,-11.81686 -1.8463,-28.02131 11.1407,-33.07345 4.1112,-1.59947 8.7123,-1.68014 12.9918,-0.80394 2.6643,0.54547 5.3296,1.53364 7.5754,3.09231 z"
         style="fill:#ffffff;stroke:none"
         inkscape:connector-curvature="0" />
      <path
         id="path9741"
         d="m -2003.9723,403.76965 c 2.6498,1.71943 4.8347,3.70226 6.6079,6.33173 10.6849,15.84142 -2.2275,37.08974 -21.1337,35.41121 -3.6179,-0.32148 -7.3425,-1.92532 -10.4017,-3.85353 -2.3477,-1.48024 -4.2662,-3.39768 -5.856,-5.66643 -11.1566,-15.91535 3.0727,-39.52124 22.6779,-35.31407 2.8533,0.61216 5.6439,1.49409 8.1056,3.09109 z"
         style="fill:#ffffff;stroke:none"
         inkscape:connector-curvature="0" />
      <path
         id="path9849"
         d="m -1965.5097,430.57069 c 12.2305,8.48865 4.4665,28.99924 -10.5465,26.25716 -2.1511,-0.393 -4.3844,-1.44264 -6.1701,-2.69491 -12.8428,-9.00205 -2.703,-29.86811 12.2704,-25.4027 1.5767,0.47023 3.0775,0.89053 4.4462,1.84045 z"
         style="fill:#020202;stroke:none"
         inkscape:connector-curvature="0" />
      <path
         id="path9865"
         d="m -2006.0997,411.81063 c 1.6958,1.18791 3.2082,2.68197 4.3004,4.4469 8.2645,13.35188 -8.5897,27.97465 -21.0164,19.11406 -1.5411,-1.09844 -2.8907,-2.57815 -3.8931,-4.1819 -8.0015,-12.80236 8.393,-27.94 20.6091,-19.37906 z"
         style="fill:#020202;stroke:none"
         inkscape:connector-curvature="0" />
      <path
         id="path9957"
         d="m -1970.5168,432.11098 c 1.682,1.86749 0.3728,4.55228 -1.3628,5.85504 -2.4001,1.80185 -6.8512,2.1266 -9.0151,-0.31425 -1.5196,-1.71457 -0.468,-4.19266 1.1033,-5.45273 2.4604,-1.97366 6.9305,-2.69008 9.2746,-0.0881 z"
         style="fill:#ffffff;stroke:none"
         inkscape:connector-curvature="0" />
      <path
         id="path9963"
         d="m -2010.745,413.66961 c 1.2805,1.85724 -0.125,4.34919 -1.6739,5.55976 -2.4442,1.91077 -7.4361,2.18629 -9.3726,-0.71092 -1.19,-1.78044 0.018,-3.86145 1.4603,-5.05626 2.4255,-2.01046 7.4906,-2.83164 9.5862,0.20742 z"
         style="fill:#ffffff;stroke:none"
         inkscape:connector-curvature="0" />
      <path
         id="path10563"
         d="m -2050.2121,436.19936 c 9.9709,23.99216 37.2801,40.01199 62.6178,42.15447 3.813,0.32261 7.8161,0.52705 11.6214,0.0685 3.8854,-0.46807 7.6652,-1.6953 11.54,-2.04753 -5.1203,4.32552 -14.6205,4.56729 -21.0369,4.25862 -18.1741,-0.87405 -37.1973,-8.83889 -50.6148,-21.1369 -5.0273,-4.60807 -9.6981,-10.13406 -12.5596,-16.37523 -0.8843,-1.92836 -2.5526,-4.90502 -1.5679,-6.92197 z"
         style="fill:#020202;stroke:none"
         inkscape:connector-curvature="0" />
      <path
         d="m -1867.1145,622.08211 c -4.3041,2.34773 -9.0974,3.5216 -14.3798,3.5216 -5.0868,0 -10.0757,-1.07604 -14.9668,-3.22813 -4.8911,-2.15209 -8.9997,-4.98893 -12.3256,-8.51054 -1.1739,-1.36951 -1.7608,-3.81506 -1.7608,-7.33666 0,-3.71725 0.5869,-7.53231 1.7608,-11.4452 0.9782,-3.5216 2.2499,-5.2824 3.815,-5.2824 0.7826,0 1.9565,0.48911 3.5216,1.46733 1.3695,1.17387 2.6412,2.54338 3.8151,4.10853 3.9129,3.32596 7.6301,4.98894 11.1517,4.98894 7.0432,0 14.4777,-6.06498 22.3035,-18.19494 l 7.6301,-17.02107 c 10.9561,-24.06427 17.1189,-38.15067 18.4884,-42.2592 0,-0.19565 0.098,-0.58694 0.2935,-1.17387 0.1957,-0.58693 0.587,-1.27169 1.1739,-2.05427 0.1956,-0.78257 0.6847,-2.44555 1.4673,-4.98893 0.9782,-2.54338 1.7608,-5.18458 2.3477,-7.9236 l 12.3256,-34.92254 c 0.7826,-3.91289 1.8587,-8.11924 3.2282,-12.61907 1.5651,-4.69547 2.9346,-8.60836 4.1085,-11.73867 0.7826,-1.56515 3.7173,-9.97786 8.804,-25.23813 l 4.1085,-12.91254 c 2.1521,-6.84755 3.9129,-12.81471 5.2824,-17.90147 2.3935,-9.66139 3.7048,-19.3334 5.5353,-29.2481 1.7608,-0.19565 2.4862,-2.44631 8.5511,-3.03324 0.9783,-0.78257 4.1086,10e-6 9.391,2.34774 5.2824,2.15209 8.7062,4.01071 10.2713,5.57587 1.5651,2.15209 2.3477,4.30417 2.3477,6.45626 0,2.73903 -0.8804,6.65192 -2.6412,11.73867 -1.5651,4.89111 -5.2824,15.26027 -11.1517,31.10747 l -9.6844,27.29241 c -4.6955,14.28205 -8.3149,24.35774 -10.8583,30.22707 -0.7825,2.54337 -1.8586,5.67368 -3.2281,9.39093 -3.3259,9.58658 -5.7715,17.21671 -7.3367,22.8904 -2.3477,5.47805 -4.8911,12.91254 -7.6301,22.30347 0,1.56516 -0.3913,3.32596 -1.1739,5.2824 -0.7825,1.95645 -1.6629,3.42378 -2.6412,4.402 l -7.0432,17.31454 -2.6412,7.0432 c -0.3913,1.17387 -1.4673,3.81507 -3.2281,7.9236 -1.5651,4.10853 -3.0325,7.14102 -4.402,9.09747 -0.5869,1.56515 -1.663,3.61942 -3.2281,6.1628 -1.5652,2.54338 -2.3478,4.10854 -2.3478,4.69547 0,0.19565 -0.098,0.48911 -0.2934,0.8804 -0.1957,0.58693 -0.587,0.8804 -1.1739,0.8804 -0.1957,0.19565 -0.587,0.48911 -1.1739,0.8804 -0.3913,0.58693 -0.5869,1.27169 -0.5869,2.05427 -0.9782,2.34773 -3.4785,7.50885 -10.1304,14.3564 -6.4563,7.0432 -12.5644,10.88173 -15.6947,12.64253 z"
         style="font-style:normal;font-weight:normal;font-size:medium;line-height:125%;font-family:sans-serif;letter-spacing:0px;word-spacing:0px;fill:#800080;fill-opacity:1;stroke:none;stroke-width:1px;stroke-linecap:butt;stroke-linejoin:miter;stroke-opacity:1"
         id="path4215"
         inkscape:connector-curvature="0"
         sodipodi:nodetypes="csscscsccscccscccccccccccccsccccccccccccccscccccc" />
      <path
         d="m -1745.2238,562.2149 q -16.7276,0 -26.9989,-9.39093 -10.2714,-9.39093 -10.2714,-26.70547 0,-6.74973 0.8804,-14.9668 0.587,-7.0432 5.5759,-19.3688 5.2824,-12.32561 14.0864,-24.06427 9.0975,-11.73867 21.1296,-17.31454 5.5759,-2.6412 9.3909,-3.5216 3.8151,-1.17387 8.804,-1.17387 12.0322,0 19.3688,4.402 7.6302,4.402 10.5648,9.97787 3.2282,5.57587 3.2282,9.6844 l 0,1.46734 0,0.8804 q 0,3.5216 -4.1086,12.91253 -4.1085,9.39094 -13.206,17.608 -8.804,8.21707 -22.8904,9.09747 -7.0432,0 -13.7929,-1.17387 -6.4563,-1.46733 -8.2171,-1.46733 -4.402,0 -5.5758,3.22813 -1.1739,3.22814 -1.1739,10.85827 0.8804,8.21707 4.402,11.4452 3.8151,3.22814 10.8583,3.22814 3.5216,0 8.217,-2.05427 4.6955,-2.34773 11.1518,-7.33667 3.5216,-2.93466 5.5758,-4.10853 2.0543,-1.17387 4.989,-1.17387 2.6412,0 6.1628,3.5216 3.5216,3.5216 3.815,6.74974 -0.5869,3.5216 -6.4562,10.5648 -5.8694,7.0432 -15.2603,12.61907 -9.3909,5.57586 -20.2492,5.57586 z m 10.2713,-70.72547 q 5.5759,0 7.6302,-1.17387 2.9346,-1.46733 8.804,-7.33667 6.1628,-6.1628 6.4562,-8.51053 0,-2.93467 -2.6412,-4.69547 -2.3477,-2.05426 -6.7497,-2.6412 l -3.2281,0 q -3.8151,0 -11.1518,6.45627 -7.0432,6.1628 -12.3256,14.37987 0.2935,1.46733 4.402,2.6412 4.1086,0.8804 8.804,0.8804 z"
         style="font-style:normal;font-weight:normal;font-size:medium;line-height:125%;font-family:sans-serif;letter-spacing:0px;word-spacing:0px;fill:#800080;fill-opacity:1;stroke:none;stroke-width:1px;stroke-linecap:butt;stroke-linejoin:miter;stroke-opacity:1"
         id="path4217"
         inkscape:connector-curvature="0" />
      <path
         d="m -1635.4718,440.13276 q -0.8804,0.8804 -1.7608,0.8804 -1.1739,0 -3.8151,-1.7608 -2.9347,-0.29347 -7.9236,-4.98894 -4.6955,-4.69547 -4.6955,-6.1628 -0.2934,-3.5216 0.587,-9.97787 0.8804,-6.74973 3.2281,-12.03213 2.6412,-5.2824 6.7497,-5.57587 2.0543,0.29347 5.5759,1.46733 3.5216,0.8804 7.9236,2.6412 5.5759,11.15174 5.5759,19.07534 0,11.73867 -11.4452,16.43414 z m -26.999,121.78868 q -7.0432,0 -12.3256,-7.33667 -4.9889,-7.33667 -6.1628,-18.19494 1.1739,-10.85826 1.7608,-15.8472 3.2282,-14.37987 7.9236,-33.74867 4.989,-19.66227 5.8694,-21.71653 1.4673,-2.64121 4.6954,-2.64121 3.2282,0 7.0432,2.64121 4.1086,2.34773 6.7498,6.74973 2.3477,3.22813 2.3477,7.33667 0,6.1628 -5.8693,25.82507 -4.1086,14.67333 -5.2824,20.83613 -1.1739,6.1628 -0.8804,13.20601 -1.1739,13.206 -2.3478,18.19493 -1.1738,4.98893 -3.5216,4.69547 z"
         style="font-style:normal;font-weight:normal;font-size:medium;line-height:125%;font-family:sans-serif;letter-spacing:0px;word-spacing:0px;fill:#800080;fill-opacity:1;stroke:none;stroke-width:1px;stroke-linecap:butt;stroke-linejoin:miter;stroke-opacity:1"
         id="path4219"
         inkscape:connector-curvature="0" />
      <path
         d="m -1605.1531,562.50837 q -4.6954,-0.8804 -10.5648,-7.33667 -5.8693,-6.74973 -7.3366,-11.4452 0,-0.58693 -0.587,-1.17386 -0.5869,-0.8804 -0.8804,-1.17387 -1.1738,-0.8804 -1.1738,-9.6844 0,-7.0432 0.5869,-14.67334 0.8804,-7.63013 2.0543,-12.3256 l 5.2824,-15.55373 4.1085,-11.73867 7.9236,-17.02107 -11.7387,-3.22814 q -2.0542,-0.29346 -3.5216,-2.05426 -1.1738,-1.7608 -1.1738,-3.22814 0,-2.34773 2.3477,-6.74973 2.6412,-4.402 4.1085,-4.402 0.8804,0.29347 4.6955,0.29347 8.804,0 13.206,-0.8804 2.9347,-1.17387 4.1085,-4.69547 1.4674,-3.22814 2.9347,-5.2824 1.4673,-2.34774 2.9347,-4.98894 0.8804,-1.7608 2.6412,-5.2824 2.0542,-3.81506 4.9889,-8.51053 0.5869,-0.8804 2.6412,-4.10854 2.0543,-3.5216 4.989,-5.86933 1.7608,-1.46733 4.6954,-2.34773 2.9347,-1.17387 5.8694,-1.17387 5.2824,0 8.5105,2.93467 2.6412,4.10853 2.6412,6.1628 0,2.34773 -2.3477,6.1628 -1.7608,3.5216 -5.8694,9.39093 -3.5216,5.2824 -5.2824,8.51054 -2.9346,3.81506 -2.9346,5.86933 0,2.05427 3.815,2.05427 4.1086,0 13.793,-1.7608 1.4673,-0.29347 4.1085,-0.29347 7.0432,0 9.9779,4.10854 2.9346,4.10853 2.9346,10.27133 0,4.10853 -2.9346,4.98893 -2.6412,0.8804 -12.3256,0.8804 -9.391,1.46734 -19.3688,1.46734 -1.7608,0 -4.1086,0.29346 -2.0542,0 -4.402,0.58694 -2.3477,0.58693 -3.5216,1.7608 -0.8804,1.17386 -2.0543,3.81507 -0.8804,0.8804 -4.1085,6.74973 -4.1085,8.51053 -5.2824,10.27133 -7.6301,22.30347 -11.7387,46.07428 -0.2934,1.7608 -0.2934,4.402 0,3.81506 2.3477,5.57586 2.6412,1.46734 9.9779,1.46734 8.217,0 15.5537,-2.05427 8.804,-3.81507 13.206,-6.45627 2.6412,-1.46733 4.6955,-2.6412 2.3477,-1.46733 3.2281,-2.05426 1.1739,-2.34774 3.8151,0.58693 2.9347,2.93467 4.402,6.74973 0,5.28241 -2.0543,9.68441 -2.0542,4.10853 -10.2713,8.804 -9.3909,5.86933 -19.3688,8.51053 -9.9779,2.6412 -18.7819,2.6412 -4.9889,0 -9.0975,-0.8804 z"
         style="font-style:normal;font-weight:normal;font-size:medium;line-height:125%;font-family:sans-serif;letter-spacing:0px;word-spacing:0px;fill:#800080;fill-opacity:1;stroke:none;stroke-width:1px;stroke-linecap:butt;stroke-linejoin:miter;stroke-opacity:1"
         id="path4221"
         inkscape:connector-curvature="0" />
      <path
         d="m -1510.9273,546.95464 q -6.1628,2.05426 -9.3909,2.05426 -4.989,0 -9.9779,-3.81506 -4.402,-4.402 -4.402,-8.80401 0,-7.33666 10.8583,-14.9668 5.8693,-3.81506 9.0974,-3.81506 2.3478,0 7.9236,2.34773 8.804,5.86933 8.804,12.03213 0,8.21707 -12.9125,14.96681 z"
         style="font-style:normal;font-weight:normal;font-size:medium;line-height:125%;font-family:sans-serif;letter-spacing:0px;word-spacing:0px;fill:#800080;fill-opacity:1;stroke:none;stroke-width:1px;stroke-linecap:butt;stroke-linejoin:miter;stroke-opacity:1"
         id="path4223"
         inkscape:connector-curvature="0" />
      <path
         d="m -1438.6565,439.54582 q -2.9347,-2.05426 -4.6955,-5.2824 -1.7608,-3.22813 -2.0543,-6.1628 -0.2934,-2.93467 0.587,-3.5216 1.7608,-2.05427 3.5216,-5.57587 1.7608,-3.5216 2.6412,-4.98893 2.3477,-5.2824 3.815,-7.63014 2.0543,-4.10853 3.8151,-4.402 2.3477,-1.17386 3.8151,-1.17386 3.815,0 8.217,2.6412 4.6955,2.6412 7.0432,6.1628 2.0543,4.69547 2.0543,8.21707 0,7.0432 -6.7497,15.55373 -2.9347,3.81507 -7.0432,5.86934 -4.1086,2.05426 -8.2171,2.05426 -4.1085,0 -6.7497,-1.7608 z m -31.6944,117.68015 q -4.1086,-4.10853 -4.1086,-14.67333 0,-5.57587 1.4674,-8.51054 0,-1.46733 0.5869,-3.5216 0.5869,-2.05427 0.5869,-2.6412 -0.2934,-1.7608 2.3478,-9.6844 3.5216,-7.9236 8.804,-24.35774 5.5758,-16.43413 7.6301,-23.47733 0,-1.46734 1.1739,-2.34774 1.1738,-1.17386 3.5216,-1.46733 3.2281,-1.17387 8.217,2.93467 4.989,3.81506 8.2171,8.804 1.7608,1.7608 1.7608,4.69546 0,4.402 -3.8151,12.32561 -1.4673,3.22813 -2.9346,7.9236 -1.1739,4.69546 -2.0543,8.804 -3.5216,7.9236 -5.5759,14.67333 -0.8804,3.81507 -1.1738,5.86934 -2.0543,10.85827 -3.8151,14.0864 -1.7608,7.33667 -4.9889,11.15173 -3.2282,3.5216 -7.3367,3.5216 -4.9889,0 -8.5105,-4.10853 z"
         style="font-style:normal;font-weight:normal;font-size:medium;line-height:125%;font-family:sans-serif;letter-spacing:0px;word-spacing:0px;fill:#800080;fill-opacity:1;stroke:none;stroke-width:1px;stroke-linecap:butt;stroke-linejoin:miter;stroke-opacity:1"
         id="path4225"
         inkscape:connector-curvature="0" />
      <path
         d="m -1313.548,555.1717 q -18.4884,-0.58693 -18.4884,-20.83613 0,-5.57587 0.8804,-10.85827 0.5869,-6.45627 0.5869,-9.09747 l 0,-1.46733 0,-3.22814 q -0.8804,-5.86933 -3.8151,-5.86933 -5.2824,0 -19.6622,10.27134 -14.0864,9.97786 -29.6402,24.06426 -4.6954,4.98894 -7.9236,9.39094 -2.9346,3.81507 -4.402,4.69547 -1.4673,0.8804 -4.6954,0.8804 -4.1086,-0.58694 -9.391,-6.1628 -5.2824,-5.57587 -7.0432,-9.97787 0,-8.21707 2.9347,-15.55374 2.9347,-7.63013 8.804,-19.07533 2.6412,-8.804 6.7497,-17.60801 4.402,-10.27133 6.1628,-15.55373 2.0543,-5.57587 2.6412,-11.4452 0,-0.29347 -0.2934,-0.29347 0,0 0,0 0,-1.17387 0.8804,-2.05427 0.8804,-0.8804 2.0542,-0.8804 0.587,-0.8804 3.5216,-0.8804 7.6302,0 13.206,4.10854 5.5759,4.10853 5.5759,12.61907 0,4.402 -1.7608,8.51053 -1.4673,3.81507 -5.8693,12.91254 l -3.2282,6.45626 q -0.8804,1.7608 -2.6412,5.2824 -1.7608,3.22814 -1.7608,4.10854 7.3367,-4.98894 17.3146,-13.206 14.6733,-11.73867 24.0642,-18.19494 9.391,-6.45627 13.793,-6.45627 3.8151,0 10.5648,4.402 7.0432,4.10854 8.2171,7.63014 0,2.05426 -0.587,6.1628 -0.2934,4.10853 -0.5869,7.33667 l 0.2935,9.09746 q 0.2934,2.34774 0.2934,7.0432 0,9.39094 -1.1738,13.20601 0.2934,0.29346 0.5869,0.8804 0.2935,0.58693 0.2935,0.8804 l -0.2935,0.58693 q 0.2935,2.93467 3.2281,9.39093 2.9347,6.45627 2.9347,7.04321 0,3.22813 -4.402,7.33666 -4.1085,3.81507 -7.9236,4.402 z"
         style="font-style:normal;font-weight:normal;font-size:medium;line-height:125%;font-family:sans-serif;letter-spacing:0px;word-spacing:0px;fill:#800080;fill-opacity:1;stroke:none;stroke-width:1px;stroke-linecap:butt;stroke-linejoin:miter;stroke-opacity:1"
         id="path4227"
         inkscape:connector-curvature="0" />
      <path
         style="fill:#800080;fill-opacity:1;fill-rule:nonzero;stroke:none"
         d="m -1926.5134,469.87712 c -0.3992,-0.0122 -0.799,-0.005 -1.2006,0.0225 -3.2166,0.22137 -6.2277,1.70068 -8.3441,4.13728 -1.0626,1.20799 -1.8701,2.60903 -2.3749,4.10532 l -11.1267,32.9742 c -15.6499,46.38414 9.3489,96.83945 55.7236,112.48609 1.051,0.35458 2.1056,0.68271 3.1603,0.99584 -2.8902,-1.70001 -5.4358,-3.70074 -7.6226,-6.01614 -1.1293,-1.31743 -1.6948,-3.66938 -1.6948,-7.057 0,-3.57598 0.5655,-7.24613 1.6948,-11.01027 0.598,-2.15272 1.1623,-3.36885 1.9883,-4.15364 -17.3537,-14.46466 -40.3331,-47.35752 -30.177,-77.45884 l 1.7285,-5.12557 7.5606,15.27523 c 1.494,3.01546 4.0662,5.13433 7.0195,6.13076 2.9516,0.99585 6.2806,0.8675 9.2929,-0.62755 6.0267,-2.98588 8.4909,-10.28756 5.5051,-16.31423 l -20.6113,-41.60009 c -0.6994,-1.42493 -1.6953,-2.70687 -2.9122,-3.76901 -2.1163,-1.85734 -4.8152,-2.90963 -7.6094,-2.99492 z"
         id="path4228-7"
         inkscape:connector-curvature="0"
         sodipodi:nodetypes="cccccsccscccccccccccc" />
      <path
         style="fill:#ffffff;fill-opacity:1"
         d="m -1752.8691,354.85696 a 15.627449,15.627449 0 0 1 -15.6275,15.62745 15.627449,15.627449 0 0 1 -15.6274,-15.62745 15.627449,15.627449 0 0 1 15.6274,-15.62744 15.627449,15.627449 0 0 1 15.6275,15.62744 z"
         id="path4469"
         inkscape:connector-curvature="0" />
      <path
         style="fill:#800080;fill-opacity:1;fill-rule:nonzero;stroke:none"
         d="m -1755.455,328.80921 c -14.4908,-7.82926 -32.651,-2.40968 -40.4792,12.07908 -4.1902,7.75542 -4.5346,16.51939 -1.7407,24.20276 l 35.0043,18.91251 c 7.9548,-1.87598 15.0975,-6.96868 19.2869,-14.72274 7.8282,-14.48877 2.4133,-32.64572 -12.0713,-40.47161 z m -8.1951,15.16808 c 6.123,3.30819 8.4129,10.98614 5.1036,17.11121 -3.3099,6.12611 -10.9864,8.41792 -17.1094,5.10972 -6.1251,-3.30932 -8.4188,-10.98794 -5.1089,-17.11406 3.3093,-6.12507 10.9917,-8.41508 17.1147,-5.10687 z"
         id="path4228"
         inkscape:connector-curvature="0" />
      <path
         style="fill:#800080;fill-opacity:1;fill-rule:nonzero;stroke:none"
         d="m -1783.8244,328.80921 c 14.4908,-7.82926 32.651,-2.40968 40.4792,12.07908 4.1902,7.75542 4.5346,16.51939 1.7407,24.20276 l -35.0043,18.91251 c -7.9548,-1.87598 -15.0975,-6.96868 -19.2869,-14.72274 -7.8282,-14.48877 -2.4133,-32.64572 12.0713,-40.47161 z m 8.1951,15.16808 c -6.123,3.30819 -8.4129,10.98614 -5.1036,17.11121 3.3099,6.12611 10.9864,8.41792 17.1094,5.10972 6.1251,-3.30932 8.4188,-10.98794 5.1089,-17.11406 -3.3093,-6.12507 -10.9917,-8.41508 -17.1147,-5.10687 z"
         id="path4228-3"
         inkscape:connector-curvature="0" />
    </g>
  </g>
</svg>
